<svg xmlns="http://www.w3.org/2000/svg" width="1600" height="1000" viewBox="0 0 1600 1000" fill="none">
  <defs>
    <linearGradient id="bg" x1="0" y1="0" x2="1600" y2="1000" gradientUnits="userSpaceOnUse">
      <stop stop-color="#0A1428"/>
      <stop offset="1" stop-color="#12233D"/>
    </linearGradient>
    <linearGradient id="line" x1="0" y1="0" x2="1" y2="0">
      <stop stop-color="#34D6FF"/>
      <stop offset="1" stop-color="#6DFFB8"/>
    </linearGradient>
    <filter id="shadow" x="-20%" y="-20%" width="140%" height="140%">
      <feDropShadow dx="0" dy="10" stdDeviation="12" flood-color="#000" flood-opacity="0.35"/>
    </filter>
  </defs>
  <rect width="1600" height="1000" rx="24" fill="url(#bg)"/>
  <g opacity="0.15" stroke="#8FAFD0" stroke-width="1">
    <path d="M0 120H1600M0 240H1600M0 360H1600M0 480H1600M0 600H1600M0 720H1600M0 840H1600"/>
    <path d="M160 0V1000M320 0V1000M480 0V1000M640 0V1000M800 0V1000M960 0V1000M1120 0V1000M1280 0V1000M1440 0V1000"/>
  </g>
  <text x="76" y="110" fill="#D6E8FF" font-family="Segoe UI, Arial" font-size="54" font-weight="700">n8n Workflow Automation</text>
  <text x="76" y="160" fill="#7FD7FF" font-family="Segoe UI, Arial" font-size="28">Lead intake -> Enrichment -> CRM -> Email -> Dashboard</text>

  <g filter="url(#shadow)">
    <rect x="90" y="260" width="250" height="140" rx="20" fill="#1D3557" stroke="#57C7FF"/>
    <text x="125" y="320" fill="#EAF4FF" font-family="Segoe UI, Arial" font-size="28" font-weight="700">Webhook</text>
    <text x="125" y="356" fill="#B9D3F0" font-family="Segoe UI, Arial" font-size="20">Nuevo lead</text>

    <rect x="430" y="260" width="250" height="140" rx="20" fill="#1A3E4B" stroke="#54E4D1"/>
    <text x="465" y="320" fill="#EAF4FF" font-family="Segoe UI, Arial" font-size="28" font-weight="700">AI Parser</text>
    <text x="465" y="356" fill="#B9D3F0" font-family="Segoe UI, Arial" font-size="20">Clasifica</text>

    <rect x="770" y="260" width="250" height="140" rx="20" fill="#21324F" stroke="#86A8FF"/>
    <text x="805" y="320" fill="#EAF4FF" font-family="Segoe UI, Arial" font-size="28" font-weight="700">CRM Upsert</text>
    <text x="805" y="356" fill="#B9D3F0" font-family="Segoe UI, Arial" font-size="20">Actualiza ficha</text>

    <rect x="1110" y="260" width="250" height="140" rx="20" fill="#3C295E" stroke="#C48DFF"/>
    <text x="1145" y="320" fill="#EAF4FF" font-family="Segoe UI, Arial" font-size="28" font-weight="700">Email</text>
    <text x="1145" y="356" fill="#B9D3F0" font-family="Segoe UI, Arial" font-size="20">Confirmacion</text>
  </g>

  <g stroke="url(#line)" stroke-width="8" stroke-linecap="round">
    <path d="M340 330H430"/>
    <path d="M680 330H770"/>
    <path d="M1020 330H1110"/>
    <path d="M1235 400V560H320V400" opacity="0.7"/>
  </g>

  <g filter="url(#shadow)">
    <rect x="240" y="580" width="420" height="260" rx="20" fill="#1B2D47" stroke="#5EC4FF"/>
    <text x="280" y="642" fill="#EAF4FF" font-family="Segoe UI, Arial" font-size="30" font-weight="700">Notion / Airtable</text>
    <text x="280" y="690" fill="#C4DBF5" font-family="Segoe UI, Arial" font-size="24">Registro de solicitudes</text>
    <text x="280" y="730" fill="#C4DBF5" font-family="Segoe UI, Arial" font-size="24">Estado y trazabilidad</text>

    <rect x="760" y="580" width="600" height="260" rx="20" fill="#1A3A46" stroke="#61E7D6"/>
    <text x="800" y="642" fill="#EAF4FF" font-family="Segoe UI, Arial" font-size="30" font-weight="700">Dashboard</text>
    <rect x="800" y="680" width="100" height="110" rx="10" fill="#2C6CB8"/>
    <rect x="930" y="710" width="100" height="80" rx="10" fill="#54D3FF"/>
    <rect x="1060" y="650" width="100" height="140" rx="10" fill="#58E3C8"/>
    <rect x="1190" y="690" width="100" height="100" rx="10" fill="#8EA3FF"/>
  </g>
</svg>
